Coordinates
version=1
nRows=14
nColumns=24
inDegrees=yes

Units are S.I. units (second, meters, Newtons, ...)
Angles are in degrees.

endheader
time	pelvis_tilt	pelvis_list	pelvis_rotation	pelvis_tx	pelvis_ty	pelvis_tz	hip_flexion_r	hip_adduction_r	hip_rotation_r	knee_angle_r	ankle_angle_r	subtalar_angle_r	mtp_angle_r	hip_flexion_l	hip_adduction_l	hip_rotation_l	knee_angle_l	ankle_angle_l	subtalar_angle_l	mtp_angle_l	lumbar_extension	lumbar_bending	lumbar_rotation
      1.88000000	     15.34246930	      3.22209907	     -3.13135585	      0.46034290	      0.95308382	      0.29399391	      7.12074417	     -6.35922312	     -2.67445898	    -66.97923365	     20.85169405	      6.28349982	     44.59126079	     -8.28589872	      7.93881940	     -9.66574254	    -15.41067564	     20.94852085	      7.37416703	     17.34066552	    -28.24499558	     -5.22578678	      6.92632016
      1.88500000	     15.58263158	      3.13529103	     -2.88510999	      0.46593931	      0.95380697	      0.29353581	      7.32670060	     -6.31227561	     -3.04770033	    -66.28053464	     21.18845568	      6.38081249	     44.44874645	     -9.19216716	      7.84981032	     -9.54567008	    -14.91655710	     21.11791293	      7.72704113	     17.21817947	    -28.51760880	     -4.98132853	      6.67898871
      1.89000000	     15.46534754	      3.10046761	     -2.82854266	      0.47120061	      0.95384060	      0.29364818	      8.11666832	     -6.21130970	     -3.12107289	    -65.72775079	     21.43157204	      6.42803385	     44.24635100	     -9.59295514	      7.77368900	     -9.80640422	    -14.59299388	     21.37739247	      8.34224995	     17.11966326	    -28.41826017	     -4.89180605	      6.51795098
      1.89500000	     15.53904992	      3.03467626	     -2.78042499	      0.47641308	      0.95410125	      0.29382475	      8.61541585	     -6.08338938	     -3.20500610	    -65.02830593	     21.75269018	      6.53168218	     43.75967739	    -10.19942692	      7.67649744	     -9.96491396	    -14.28198509	     21.62653142	      8.86668072	     16.87751506	    -28.52031600	     -4.78474845	      6.43988282
      1.90000000	     15.57458425	      3.07636390	     -2.69646986	      0.48183030	      0.95429997	      0.29353203	      9.08036718	     -6.17182100	     -3.37844040	    -64.20655503	     22.21220472	      6.76729315	     43.70674628	    -10.84953364	      7.75519532	     -9.78123356	    -13.81899098	     21.71794351	      9.03181227	     16.78176315	    -28.56126557	     -4.71541429	      6.23332355
      1.90500000	     15.70716732	      3.05169331	     -2.53114571	      0.48728097	      0.95460215	      0.29324074	      9.40339359	     -6.18181327	     -3.65717103	    -63.35216086	     22.51422172	      6.93908570	     43.54353602	    -11.60326446	      7.75330644	     -9.48243722	    -13.36343008	     21.84335854	      9.08412872	     16.64588445	    -28.72377581	     -4.56093940	      5.99724678
      1.91000000	     15.90697554	      3.00592185	     -2.41805104	      0.49271265	      0.95487637	      0.29295767	      9.68586453	     -6.14669617	     -3.84177308	    -62.53028064	     22.55669423	      6.85699283	     43.34756341	    -12.40658203	      7.74323904	     -9.29116738	    -12.95405330	     22.00165733	      9.08053000	     16.48763950	    -28.94543190	     -4.40899480	      5.84818249
      1.91500000	     16.04413255	      3.01263598	     -2.29722563	      0.49824697	      0.95501812	      0.29259883	      9.99985544	     -6.20953794	     -4.07538656	    -61.65051435	     22.74142723	      7.08076382	     43.23676974	    -13.12946295	      7.78600776	     -9.03291637	    -12.58246148	     22.15540045	      9.10777176	     16.34796484	    -29.08838390	     -4.29519320	      5.67421450
      1.92000000	     16.13443075	      3.02055184	     -2.19073266	      0.50357271	      0.95502249	      0.29234963	     10.34352625	     -6.23915638	     -4.27166544	    -60.64446127	     23.04445571	      7.25551957	     43.15178805	    -13.76664038	      7.81040741	     -8.82615265	    -12.24467349	     22.29722968	      9.17940497	     16.22757181	    -29.20270094	     -4.19684219	      5.50164591
      1.92500000	     16.29805063	      2.97771037	     -2.01394863	      0.50890923	      0.95517345	      0.29197537	     10.53084022	     -6.21534871	     -4.54080318	    -59.50891730	     23.33904739	      7.42125003	     42.79073594	    -14.46352632	      7.75873963	     -8.54993245	    -11.97865481	     22.49164471	      9.29387524	     15.92389296	    -29.40391660	     -4.01229271	      5.25693858
      1.93000000	     16.38222114	      2.90548168	     -1.85861687	      0.51423426	      0.95512930	      0.29174017	     10.79492796	     -6.15231287	     -4.76752933	    -58.37751946	     23.51446551	      7.68073066	     42.47006312	    -15.05971153	      7.67650551	     -8.31407858	    -11.72108336	     22.69866470	      9.34040528	     15.69183914	    -29.52210749	     -3.81553997	      5.05921018
      1.93500000	     16.48464021	      2.88974913	     -1.73051497	      0.51951950	      0.95503092	      0.29167162	     11.02984375	     -6.12560978	     -4.92100296	    -57.19919921	     23.68012813	      7.83984763	     42.23932931	    -15.65593470	      7.65043462	     -8.11029350	    -11.46803790	     22.85645458	      9.36492343	     15.56152058	    -29.65224473	     -3.69300790	      4.88936589
      1.94000000	     16.58301145	      2.81120058	     -1.62516284	      0.52497091	      0.95491488	      0.29178677	     11.20893048	     -5.98805728	     -5.04006347	    -55.93214097	     23.85462055	      7.88708181	     41.27701802	    -16.22266385	      7.51679873	     -8.16568304	    -11.31525582	     23.31228077	      9.87716571	     13.78326419	    -29.76246701	     -3.54425747	      4.76407865
      1.94500000	     16.66357773	      2.75535913	     -1.45811067	      0.53021509	      0.95466942	      0.29174552	     11.42588065	     -5.91626874	     -5.29860311	    -54.64917572	     23.88525883	      7.84838954	     41.33709869	    -16.69210418	      7.39215066	     -8.11122375	    -11.29548252	     23.64366384	     10.14237931	     13.76844199	    -29.88091685	     -3.38589514	      4.53098740
